<svg version="1.1" xmlns="http://www.w3.org/2000/svg" xmlns:xlink="http://www.w3.org/1999/xlink" width="115.93206" height="119.9503" viewBox="0,0,115.93206,119.9503"><g transform="translate(-182.64938,-120.95639)"><g data-paper-data="{&quot;isPaintingLayer&quot;:true}" fill-rule="nonzero" stroke="none" stroke-linecap="butt" stroke-linejoin="miter" stroke-miterlimit="10" stroke-dasharray="" stroke-dashoffset="0" style="mix-blend-mode: normal"><g><path d="M192.71323,227.25621v-100.87953h100.87953v100.87953z" fill="none" stroke-width="NaN"/><path d="M187.64938,227.00811v-100.76971h5.10762v100.76971z" fill="none" stroke-width="0"/><path d="M192.71369,232.1567v-4.88743h100.59199v4.88743z" fill="none" stroke-width="0"/><path d="M293.4034,227.18584v-100.59199h5.17804v100.59199z" fill="none" stroke-width="0"/><path d="M192.53597,126.48822v-5.53182h100.94743v5.53182z" fill="none" stroke-width="0"/><g fill-opacity="0" fill="#000000" stroke-width="1" font-family="Pixel" font-weight="normal" font-size="40" text-anchor="start"><text transform="translate(197.88268,219.03389) scale(0.61342,0.61342)" font-size="40" xml:space="preserve" fill-opacity="0" fill="#000000" fill-rule="nonzero" stroke="none" stroke-width="1" stroke-linecap="butt" stroke-linejoin="miter" stroke-miterlimit="10" stroke-dasharray="" stroke-dashoffset="0" font-family="Pixel" font-weight="normal" text-anchor="start" style="mix-blend-mode: normal"><tspan x="0" dy="0">BIOMES</tspan></text><text transform="translate(195.49678,218.92957) scale(0.61342,0.61342)" font-size="40" xml:space="preserve" fill-opacity="0" fill="#000000" fill-rule="nonzero" stroke="none" stroke-width="1" stroke-linecap="butt" stroke-linejoin="miter" stroke-miterlimit="10" stroke-dasharray="" stroke-dashoffset="0" font-family="Pixel" font-weight="normal" text-anchor="start" style="mix-blend-mode: normal"><tspan x="0" dy="0">BIOMES</tspan></text></g><g fill="none" stroke-width="0"><path d="M210.89315,176.7013v-33.47496h63.23048v33.47496z"/><path d="M224.57538,148.53981v-15.40911h36.53021v15.40911z"/><path d="M233.47547,194.2358v-17.5345h18.46436v17.5345z"/><path d="M209.00735,176.91756v-33.72974h1.93244v33.72974z"/><path d="M273.77294,176.88151v-33.72974h1.82508v33.72974z"/><path d="M210.97019,178.64589v-1.991h22.60361v1.991z"/><path d="M251.69092,178.60985v-1.991h22.60361v1.991z"/><path d="M210.97019,143.23089v-1.90315h13.58559v1.90315z"/><path d="M261.0603,143.12358v-1.77627h13.11712v1.77627z"/><path d="M223.05277,142.60222v-9.48649h1.71772v9.48649z"/><path d="M261.13129,142.56617v-9.48649h1.61036v9.48649z"/><path d="M224.43866,133.10852v-1.74456h36.77479v1.74456z"/><path d="M232.51974,194.36802v-17.45046h1.17117v17.45046z"/><path d="M250.98822,194.09774v-17.45046h1.17118v17.45046z"/><path d="M233.80585,195.491v-1.28604h17.04003v1.28604z"/><path d="M211.08581,153.48037v-10.07398h11.57436v10.07398z"/><path d="M214.94393,176.2004v-15.11097h16.93286v15.11097z"/><path d="M233.69868,157.55282v-10.39549h10.39549v10.39549z"/><path d="M231.98396,140.94148v-7.60907h28.40004v7.60907z"/><path d="M257.1689,163.33999v-16.0755h16.0755v16.0755z"/><path d="M252.91872,176.62908v-2.1434h20.89814v2.1434z"/><path d="M248.5953,172.12793v-6.96605h6.96605v6.96605z"/><path d="M228.23301,153.48037v-4.39397h4.39397v4.39397z"/><path d="M251.8104,147.37167v-3.75095h3.75095v3.75095z"/><path d="M233.69868,194.41929v-17.46871h1.39321v17.46871z"/><path d="M249.63002,194.27513v-17.4687h1.39321v17.46871z"/><path d="M234.02019,194.41929v-2.35774h15.96833v2.35774z"/><path d="M235.09189,192.06156v-15.21814h2.57208v15.21814z"/><path d="M247.05794,192.13174v-15.21814h2.57208v15.21814z"/><path d="M237.67792,192.05643v-15.10139h3.07621v15.10139z"/><path d="M244.16942,192.02263v-15.28783h3.07621v15.28783z"/></g></g><g><path d="M187.71323,236.00621v-100.87953h100.87953v100.87953z" fill="#ffa000" stroke-width="NaN"/><path d="M182.64938,235.75811v-100.76971h5.10762v100.76971z" fill="#000000" stroke-width="0"/><path d="M187.71369,240.9067v-4.88743h100.59199v4.88743z" fill="#000000" stroke-width="0"/><path d="M288.4034,235.93584v-100.59199h5.17804v100.59199z" fill="#000000" stroke-width="0"/><path d="M187.53597,135.23822v-5.53182h100.94743v5.53182z" fill="#000000" stroke-width="0"/><g stroke-width="1" font-family="Pixel" font-weight="normal" font-size="40" text-anchor="start"><text transform="translate(192.88268,227.78389) scale(0.61342,0.61342)" font-size="40" xml:space="preserve" fill="#d85e00" fill-rule="nonzero" stroke="none" stroke-width="1" stroke-linecap="butt" stroke-linejoin="miter" stroke-miterlimit="10" stroke-dasharray="" stroke-dashoffset="0" font-family="Pixel" font-weight="normal" text-anchor="start" style="mix-blend-mode: normal"><tspan x="0" dy="0">BIOMES</tspan></text><text transform="translate(190.49678,227.67957) scale(0.61342,0.61342)" font-size="40" xml:space="preserve" fill="#000000" fill-rule="nonzero" stroke="none" stroke-width="1" stroke-linecap="butt" stroke-linejoin="miter" stroke-miterlimit="10" stroke-dasharray="" stroke-dashoffset="0" font-family="Pixel" font-weight="normal" text-anchor="start" style="mix-blend-mode: normal"><tspan x="0" dy="0">BIOMES</tspan></text></g><g stroke-width="0"><path d="M205.89315,185.4513v-33.47496h63.23048v33.47496z" fill="#00e135"/><path d="M219.57538,157.28982v-15.40911h36.53021v15.40911z" fill="#00e135"/><path d="M228.47547,202.9858v-17.5345h18.46436v17.5345z" fill="#c46000"/><path d="M204.00735,185.66756v-33.72974h1.93244v33.72974z" fill="#000000"/><path d="M268.77294,185.63152v-33.72974h1.82508v33.72974z" fill="#000000"/><path d="M205.97019,187.39589v-1.991h22.60361v1.991z" fill="#000000"/><path d="M246.69092,187.35985v-1.991h22.60361v1.991z" fill="#000000"/><path d="M205.97019,151.9809v-1.90315h13.58559v1.90315z" fill="#000000"/><path d="M256.0603,151.87357v-1.77627h13.11712v1.77627z" fill="#000000"/><path d="M218.05277,151.35223v-9.48649h1.71772v9.48649z" fill="#000000"/><path d="M256.13129,151.31617v-9.48649h1.61036v9.48649z" fill="#000000"/><path d="M219.43866,141.85852v-1.74456h36.77479v1.74456z" fill="#000000"/><path d="M227.51974,203.11802v-17.45046h1.17117v17.45046z" fill="#000000"/><path d="M245.98822,202.84775v-17.45046h1.17118v17.45046z" fill="#000000"/><path d="M228.80585,204.241v-1.28604h17.04003v1.28604z" fill="#000000"/><path d="M206.08581,162.23037v-10.07398h11.57436v10.07398z" fill="#03c600"/><path d="M209.94393,184.9504v-15.11097h16.93286v15.11097z" fill="#03c600"/><path d="M228.69868,166.30283v-10.39549h10.39549v10.39549z" fill="#03c600"/><path d="M226.98396,149.69148v-7.60907h28.40004v7.60907z" fill="#03c600"/><path d="M252.1689,172.09v-16.0755h16.0755v16.0755z" fill="#03c600"/><path d="M247.91872,185.37908v-2.1434h20.89814v2.1434z" fill="#03c600"/><path d="M243.5953,180.87794v-6.96605h6.96605v6.96605z" fill="#ff0000"/><path d="M223.23301,162.23037v-4.39397h4.39397v4.39397z" fill="#ff0000"/><path d="M246.8104,156.12168v-3.75095h3.75095v3.75095z" fill="#ff0000"/><path d="M228.69868,203.1693v-17.46871h1.39321v17.46871z" fill="#752d00"/><path d="M244.63002,203.02514v-17.4687h1.39321v17.46871z" fill="#752d00"/><path d="M229.02019,203.1693v-2.35774h15.96833v2.35774z" fill="#752d00"/><path d="M230.09189,200.81156v-15.21814h2.57208v15.21814z" fill="#a94100"/><path d="M242.05794,200.88174v-15.21814h2.57208v15.21814z" fill="#a94100"/><path d="M232.67792,200.80643v-15.10139h3.07621v15.10139z" fill="#aa5200"/><path d="M239.16942,200.77263v-15.28783h3.07621v15.28783z" fill="#b65800"/></g></g></g></g></svg>