<svg version="1.1" xmlns="http://www.w3.org/2000/svg" xmlns:xlink="http://www.w3.org/1999/xlink" width="115.59159" height="120.17038" viewBox="0,0,115.59159,120.17038"><g transform="translate(-182.98985,-120.95638)"><g data-paper-data="{&quot;isPaintingLayer&quot;:true}" fill-rule="nonzero" stroke="none" stroke-linecap="butt" stroke-linejoin="miter" stroke-miterlimit="10" stroke-dasharray="" stroke-dashoffset="0" style="mix-blend-mode: normal"><g fill="#845300"><path d="M187.45314,131.66435v-5.23842h8.90676v5.23842z" stroke-width="0"/><path d="M182.98985,235.87626v-104.60089h106.37718v104.60089z" stroke-width="NaN"/><path d="M187.54416,241.12677v-5.53535h97.28916v5.53535z" stroke-width="0"/></g><g><path d="M192.71323,227.2562v-100.87953h100.87953v100.87953z" fill="#ffa000" stroke-width="NaN"/><path d="M187.64938,227.0081v-100.76971h5.10762v100.76971z" fill="#000000" stroke-width="0"/><path d="M192.71369,232.15669v-4.88743h100.59199v4.88743z" fill="#000000" stroke-width="0"/><path d="M293.4034,227.18583v-100.59199h5.17804v100.59199z" fill="#000000" stroke-width="0"/><path d="M192.53597,126.48821v-5.53182h100.94743v5.53182z" fill="#000000" stroke-width="0"/><g stroke-width="1" font-family="Pixel" font-weight="normal" font-size="40" text-anchor="start"><text transform="translate(197.88268,219.03388) scale(0.61342,0.61342)" font-size="40" xml:space="preserve" fill="#d85e00" fill-rule="nonzero" stroke="none" stroke-width="1" stroke-linecap="butt" stroke-linejoin="miter" stroke-miterlimit="10" stroke-dasharray="" stroke-dashoffset="0" font-family="Pixel" font-weight="normal" text-anchor="start" style="mix-blend-mode: normal"><tspan x="0" dy="0">BIOMES</tspan></text><text transform="translate(195.49678,218.92956) scale(0.61342,0.61342)" font-size="40" xml:space="preserve" fill="#000000" fill-rule="nonzero" stroke="none" stroke-width="1" stroke-linecap="butt" stroke-linejoin="miter" stroke-miterlimit="10" stroke-dasharray="" stroke-dashoffset="0" font-family="Pixel" font-weight="normal" text-anchor="start" style="mix-blend-mode: normal"><tspan x="0" dy="0">BIOMES</tspan></text></g><g stroke-width="0"><path d="M210.89315,176.70129v-33.47496h63.23048v33.47496z" fill="#00e135"/><path d="M224.57538,148.53981v-15.40911h36.53021v15.40911z" fill="#00e135"/><path d="M233.47547,194.23579v-17.5345h18.46436v17.5345z" fill="#c46000"/><path d="M209.00735,176.91755v-33.72974h1.93244v33.72974z" fill="#000000"/><path d="M273.77294,176.88151v-33.72974h1.82508v33.72974z" fill="#000000"/><path d="M210.97019,178.64588v-1.991h22.60361v1.991z" fill="#000000"/><path d="M251.69092,178.60984v-1.991h22.60361v1.991z" fill="#000000"/><path d="M210.97019,143.23089v-1.90315h13.58559v1.90315z" fill="#000000"/><path d="M261.0603,143.12357v-1.77627h13.11712v1.77627z" fill="#000000"/><path d="M223.05277,142.60222v-9.48649h1.71772v9.48649z" fill="#000000"/><path d="M261.13129,142.56617v-9.48649h1.61036v9.48649z" fill="#000000"/><path d="M224.43866,133.10851v-1.74456h36.77479v1.74456z" fill="#000000"/><path d="M232.51974,194.36801v-17.45046h1.17117v17.45046z" fill="#000000"/><path d="M250.98822,194.09774v-17.45046h1.17118v17.45046z" fill="#000000"/><path d="M233.80585,195.49099v-1.28604h17.04003v1.28604z" fill="#000000"/><path d="M211.08581,153.48036v-10.07398h11.57436v10.07398z" fill="#03c600"/><path d="M214.94393,176.20039v-15.11097h16.93286v15.11097z" fill="#03c600"/><path d="M233.69868,157.55282v-10.39549h10.39549v10.39549z" fill="#03c600"/><path d="M231.98396,140.94147v-7.60907h28.40004v7.60907z" fill="#03c600"/><path d="M257.1689,163.33999v-16.0755h16.0755v16.0755z" fill="#03c600"/><path d="M252.91872,176.62907v-2.1434h20.89814v2.1434z" fill="#03c600"/><path d="M248.5953,172.12793v-6.96605h6.96605v6.96605z" fill="#ff0000"/><path d="M228.23301,153.48036v-4.39397h4.39397v4.39397z" fill="#ff0000"/><path d="M251.8104,147.37167v-3.75095h3.75095v3.75095z" fill="#ff0000"/><path d="M233.69868,194.41929v-17.46871h1.39321v17.46871z" fill="#752d00"/><path d="M249.63002,194.27513v-17.4687h1.39321v17.46871z" fill="#752d00"/><path d="M234.02019,194.41929v-2.35774h15.96833v2.35774z" fill="#752d00"/><path d="M235.09189,192.06155v-15.21814h2.57208v15.21814z" fill="#a94100"/><path d="M247.05794,192.13173v-15.21814h2.57208v15.21814z" fill="#a94100"/><path d="M237.67792,192.05642v-15.10139h3.07621v15.10139z" fill="#aa5200"/><path d="M244.16942,192.02262v-15.28783h3.07621v15.28783z" fill="#b65800"/></g></g></g></g></svg>